<svg id="visual" viewBox="0 0 960 540" width="960" height="540" xmlns="http://www.w3.org/2000/svg" xmlns:xlink="http://www.w3.org/1999/xlink" version="1.1"><rect x="0" y="0" width="960" height="540" fill="#002643"></rect><path d="M0 394L20 399C40 404 80 414 120 414.5C160 415 200 406 240 401.5C280 397 320 397 360 391.2C400 385.3 440 373.7 480 376.2C520 378.7 560 395.3 600 401C640 406.7 680 401.3 720 394.5C760 387.7 800 379.3 840 378C880 376.7 920 382.3 940 385.2L960 388L960 541L940 541C920 541 880 541 840 541C800 541 760 541 720 541C680 541 640 541 600 541C560 541 520 541 480 541C440 541 400 541 360 541C320 541 280 541 240 541C200 541 160 541 120 541C80 541 40 541 20 541L0 541Z" fill="#c62368"></path><path d="M0 391L20 392C40 393 80 395 120 402.2C160 409.3 200 421.7 240 420.7C280 419.7 320 405.3 360 399C400 392.7 440 394.3 480 400C520 405.7 560 415.3 600 419.2C640 423 680 421 720 414C760 407 800 395 840 394.7C880 394.3 920 405.7 940 411.3L960 417L960 541L940 541C920 541 880 541 840 541C800 541 760 541 720 541C680 541 640 541 600 541C560 541 520 541 480 541C440 541 400 541 360 541C320 541 280 541 240 541C200 541 160 541 120 541C80 541 40 541 20 541L0 541Z" fill="#d03267"></path><path d="M0 405L20 413.3C40 421.7 80 438.3 120 439C160 439.7 200 424.3 240 420.2C280 416 320 423 360 423.8C400 424.7 440 419.3 480 417C520 414.7 560 415.3 600 415.7C640 416 680 416 720 422.7C760 429.3 800 442.7 840 445.8C880 449 920 442 940 438.5L960 435L960 541L940 541C920 541 880 541 840 541C800 541 760 541 720 541C680 541 640 541 600 541C560 541 520 541 480 541C440 541 400 541 360 541C320 541 280 541 240 541C200 541 160 541 120 541C80 541 40 541 20 541L0 541Z" fill="#da3f67"></path><path d="M0 470L20 470.7C40 471.3 80 472.7 120 468.2C160 463.7 200 453.3 240 447.8C280 442.3 320 441.7 360 446.3C400 451 440 461 480 462.5C520 464 560 457 600 456.2C640 455.3 680 460.7 720 458.7C760 456.7 800 447.3 840 441C880 434.7 920 431.3 940 429.7L960 428L960 541L940 541C920 541 880 541 840 541C800 541 760 541 720 541C680 541 640 541 600 541C560 541 520 541 480 541C440 541 400 541 360 541C320 541 280 541 240 541C200 541 160 541 120 541C80 541 40 541 20 541L0 541Z" fill="#e34c67"></path><path d="M0 455L20 455C40 455 80 455 120 458.7C160 462.3 200 469.7 240 470.7C280 471.7 320 466.3 360 467.3C400 468.3 440 475.7 480 477.8C520 480 560 477 600 474.3C640 471.7 680 469.3 720 469.2C760 469 800 471 840 471.2C880 471.3 920 469.7 940 468.8L960 468L960 541L940 541C920 541 880 541 840 541C800 541 760 541 720 541C680 541 640 541 600 541C560 541 520 541 480 541C440 541 400 541 360 541C320 541 280 541 240 541C200 541 160 541 120 541C80 541 40 541 20 541L0 541Z" fill="#eb5967"></path><path d="M0 501L20 498C40 495 80 489 120 489C160 489 200 495 240 494.5C280 494 320 487 360 484.8C400 482.7 440 485.3 480 485.7C520 486 560 484 600 486.5C640 489 680 496 720 496.5C760 497 800 491 840 489C880 487 920 489 940 490L960 491L960 541L940 541C920 541 880 541 840 541C800 541 760 541 720 541C680 541 640 541 600 541C560 541 520 541 480 541C440 541 400 541 360 541C320 541 280 541 240 541C200 541 160 541 120 541C80 541 40 541 20 541L0 541Z" fill="#f36567"></path><path d="M0 525L20 523.3C40 521.7 80 518.3 120 515.7C160 513 200 511 240 508.3C280 505.7 320 502.3 360 503.7C400 505 440 511 480 512.2C520 513.3 560 509.7 600 510C640 510.3 680 514.7 720 515.8C760 517 800 515 840 514.8C880 514.7 920 516.3 940 517.2L960 518L960 541L940 541C920 541 880 541 840 541C800 541 760 541 720 541C680 541 640 541 600 541C560 541 520 541 480 541C440 541 400 541 360 541C320 541 280 541 240 541C200 541 160 541 120 541C80 541 40 541 20 541L0 541Z" fill="#fa7268"></path></svg>