<svg id="visual" viewBox="0 0 900 600" width="900" height="600" xmlns="http://www.w3.org/2000/svg" xmlns:xlink="http://www.w3.org/1999/xlink" version="1.1"><rect width="900" height="600" fill="#001829"></rect><g><g transform="translate(730 499)"><path d="M0 -24.2L23 -7.5L14.2 19.5L-14.2 19.5L-23 -7.5Z" fill="#297EA6"></path></g><g transform="translate(463 470)"><path d="M0 -6L5.7 -1.9L3.5 4.9L-3.5 4.9L-5.7 -1.9Z" fill="#297EA6"></path></g><g transform="translate(776 84)"><path d="M0 -22L20.9 -6.8L12.9 17.8L-12.9 17.8L-20.9 -6.8Z" fill="#297EA6"></path></g><g transform="translate(290 21)"><path d="M0 -20L19 -6.2L11.8 16.2L-11.8 16.2L-19 -6.2Z" fill="#297EA6"></path></g><g transform="translate(152 261)"><path d="M0 -20L19 -6.2L11.8 16.2L-11.8 16.2L-19 -6.2Z" fill="#297EA6"></path></g><g transform="translate(406 489)"><path d="M0 -16L15.2 -4.9L9.4 12.9L-9.4 12.9L-15.2 -4.9Z" fill="#297EA6"></path></g><g transform="translate(187 319)"><path d="M0 -18L17.1 -5.6L10.6 14.6L-10.6 14.6L-17.1 -5.6Z" fill="#297EA6"></path></g><g transform="translate(692 307)"><path d="M0 -12L11.4 -3.7L7.1 9.7L-7.1 9.7L-11.4 -3.7Z" fill="#297EA6"></path></g><g transform="translate(698 576)"><path d="M0 -17L16.2 -5.3L10 13.8L-10 13.8L-16.2 -5.3Z" fill="#297EA6"></path></g><g transform="translate(397 283)"><path d="M0 -7L6.7 -2.2L4.1 5.7L-4.1 5.7L-6.7 -2.2Z" fill="#297EA6"></path></g><g transform="translate(338 516)"><path d="M0 -6L5.7 -1.9L3.5 4.9L-3.5 4.9L-5.7 -1.9Z" fill="#297EA6"></path></g><g transform="translate(488 35)"><path d="M0 -18L17.1 -5.6L10.6 14.6L-10.6 14.6L-17.1 -5.6Z" fill="#297EA6"></path></g><g transform="translate(784 27)"><path d="M0 -15L14.3 -4.6L8.8 12.1L-8.8 12.1L-14.3 -4.6Z" fill="#297EA6"></path></g><g transform="translate(425 578)"><path d="M0 -11L10.5 -3.4L6.5 8.9L-6.5 8.9L-10.5 -3.4Z" fill="#297EA6"></path></g><g transform="translate(878 381)"><path d="M0 -17L16.2 -5.3L10 13.8L-10 13.8L-16.2 -5.3Z" fill="#297EA6"></path></g><g transform="translate(19 347)"><path d="M0 -19L18.1 -5.9L11.2 15.4L-11.2 15.4L-18.1 -5.9Z" fill="#297EA6"></path></g><g transform="translate(588 350)"><path d="M0 -19L18.1 -5.9L11.2 15.4L-11.2 15.4L-18.1 -5.9Z" fill="#297EA6"></path></g></g></svg>