<svg id="visual" viewBox="0 0 675 900" width="675" height="900" xmlns="http://www.w3.org/2000/svg" xmlns:xlink="http://www.w3.org/1999/xlink" version="1.1"><rect x="0" y="0" width="675" height="900" fill="#002643"></rect><path d="M0 657L14 665.3C28 673.7 56 690.3 84.2 691.2C112.3 692 140.7 677 168.8 669.5C197 662 225 662 253.2 652.3C281.3 642.7 309.7 623.3 337.8 627.5C366 631.7 394 659.3 422 668.8C450 678.3 478 669.7 506.2 658.3C534.3 647 562.7 633 590.8 630.7C619 628.3 647 637.7 661 642.3L675 647L675 901L661 901C647 901 619 901 590.8 901C562.7 901 534.3 901 506.2 901C478 901 450 901 422 901C394 901 366 901 337.8 901C309.7 901 281.3 901 253.2 901C225 901 197 901 168.8 901C140.7 901 112.3 901 84.2 901C56 901 28 901 14 901L0 901Z" fill="#c62368"></path><path d="M0 652L14 653.8C28 655.7 56 659.3 84.2 671.3C112.3 683.3 140.7 703.7 168.8 701.8C197 700 225 676 253.2 665.5C281.3 655 309.7 658 337.8 667.5C366 677 394 693 422 699.3C450 705.7 478 702.3 506.2 690.5C534.3 678.7 562.7 658.3 590.8 657.7C619 657 647 676 661 685.5L675 695L675 901L661 901C647 901 619 901 590.8 901C562.7 901 534.3 901 506.2 901C478 901 450 901 422 901C394 901 366 901 337.8 901C309.7 901 281.3 901 253.2 901C225 901 197 901 168.8 901C140.7 901 112.3 901 84.2 901C56 901 28 901 14 901L0 901Z" fill="#d03267"></path><path d="M0 676L14 689.8C28 703.7 56 731.3 84.2 732.5C112.3 733.7 140.7 708.3 168.8 701.3C197 694.3 225 705.7 253.2 707C281.3 708.3 309.7 699.7 337.8 696C366 692.3 394 693.7 422 694C450 694.3 478 693.7 506.2 704.5C534.3 715.3 562.7 737.7 590.8 743.2C619 748.7 647 737.3 661 731.7L675 726L675 901L661 901C647 901 619 901 590.8 901C562.7 901 534.3 901 506.2 901C478 901 450 901 422 901C394 901 366 901 337.8 901C309.7 901 281.3 901 253.2 901C225 901 197 901 168.8 901C140.7 901 112.3 901 84.2 901C56 901 28 901 14 901L0 901Z" fill="#da3f67"></path><path d="M0 785L14 785.8C28 786.7 56 788.3 84.2 780.7C112.3 773 140.7 756 168.8 746.8C197 737.7 225 736.3 253.2 744C281.3 751.7 309.7 768.3 337.8 770.8C366 773.3 394 761.7 422 760.3C450 759 478 768 506.2 764.8C534.3 761.7 562.7 746.3 590.8 735.8C619 725.3 647 719.7 661 716.8L675 714L675 901L661 901C647 901 619 901 590.8 901C562.7 901 534.3 901 506.2 901C478 901 450 901 422 901C394 901 366 901 337.8 901C309.7 901 281.3 901 253.2 901C225 901 197 901 168.8 901C140.7 901 112.3 901 84.2 901C56 901 28 901 14 901L0 901Z" fill="#e34c67"></path><path d="M0 760L14 759.8C28 759.7 56 759.3 84.2 765.3C112.3 771.3 140.7 783.7 168.8 785.3C197 787 225 778 253.2 779.7C281.3 781.3 309.7 793.7 337.8 797.2C366 800.7 394 795.3 422 790.8C450 786.3 478 782.7 506.2 782.7C534.3 782.7 562.7 786.3 590.8 786.7C619 787 647 784 661 782.5L675 781L675 901L661 901C647 901 619 901 590.8 901C562.7 901 534.3 901 506.2 901C478 901 450 901 422 901C394 901 366 901 337.8 901C309.7 901 281.3 901 253.2 901C225 901 197 901 168.8 901C140.7 901 112.3 901 84.2 901C56 901 28 901 14 901L0 901Z" fill="#eb5967"></path><path d="M0 836L14 830.8C28 825.7 56 815.3 84.2 815.3C112.3 815.3 140.7 825.7 168.8 824.8C197 824 225 812 253.2 808.3C281.3 804.7 309.7 809.3 337.8 810C366 810.7 394 807.3 422 811.7C450 816 478 828 506.2 828.8C534.3 829.7 562.7 819.3 590.8 816C619 812.7 647 816.3 661 818.2L675 820L675 901L661 901C647 901 619 901 590.8 901C562.7 901 534.3 901 506.2 901C478 901 450 901 422 901C394 901 366 901 337.8 901C309.7 901 281.3 901 253.2 901C225 901 197 901 168.8 901C140.7 901 112.3 901 84.2 901C56 901 28 901 14 901L0 901Z" fill="#f36567"></path><path d="M0 876L14 873.3C28 870.7 56 865.3 84.2 860.8C112.3 856.3 140.7 852.7 168.8 848C197 843.3 225 837.7 253.2 840C281.3 842.3 309.7 852.7 337.8 854.5C366 856.3 394 849.7 422 850.2C450 850.7 478 858.3 506.2 860.5C534.3 862.7 562.7 859.3 590.8 859C619 858.7 647 861.3 661 862.7L675 864L675 901L661 901C647 901 619 901 590.8 901C562.7 901 534.3 901 506.2 901C478 901 450 901 422 901C394 901 366 901 337.8 901C309.7 901 281.3 901 253.2 901C225 901 197 901 168.8 901C140.7 901 112.3 901 84.2 901C56 901 28 901 14 901L0 901Z" fill="#fa7268"></path></svg>